<?xml version="1.0" encoding="UTF-8"?>
<svg version="1.1" xmlns="http://www.w3.org/2000/svg" width="512" height="512">
<path d="M0 0 C18.21711573 6.35357571 34.85783078 15.70591715 49.3203125 28.53515625 C50.11824219 29.21320312 50.91617187 29.89125 51.73828125 30.58984375 C56.7438791 34.89952096 61.0835078 39.48026934 65.3203125 44.53515625 C66.11953125 45.44652344 66.91875 46.35789063 67.7421875 47.296875 C89.07695096 71.73451926 117.28353469 107.64374156 115.3203125 141.53515625 C114.43631725 146.26605496 113.11431471 150.25908128 110.5703125 154.34765625 C109.13083874 156.43250088 109.13083874 156.43250088 109.36328125 158.7265625 C110.77047261 162.85623836 113.45999655 165.48429495 116.3828125 168.66015625 C132.87019132 187.0849607 132.87019132 187.0849607 132.7109375 199.1484375 C131.80286834 207.02139715 126.78746381 211.33930029 120.9453125 216.22265625 C119.07886446 217.67124279 117.20429056 219.10944312 115.3203125 220.53515625 C114.56878906 221.1384375 113.81726563 221.74171875 113.04296875 222.36328125 C107.68054998 226.60381203 103.43554404 228.81364315 96.4453125 228.47265625 C87.06937187 227.19730409 82.40795162 221.89232754 76.7734375 214.671875 C74.02102391 211.15246717 71.15519438 207.74764996 68.2578125 204.34765625 C67.30854058 203.22921179 66.35931717 202.11072616 65.41015625 200.9921875 C64.72050781 200.18136719 64.03085937 199.37054688 63.3203125 198.53515625 C54.93812853 204.57032871 46.63185699 211.22361176 39.3203125 218.53515625 C45.21483814 225.80585379 45.21483814 225.80585379 51.26171875 232.94921875 C51.74987061 233.51552002 52.23802246 234.08182129 52.7409668 234.6652832 C53.68908571 235.76205799 54.64215712 236.85457691 55.60083008 237.94213867 C60.28028366 243.36859544 62.74919912 247.79991716 62.7578125 255.03515625 C62.78681641 256.659375 62.78681641 256.659375 62.81640625 258.31640625 C61.78494626 265.00871357 56.93820167 269.19083704 52.1328125 273.53515625 C51.56199951 274.05698486 50.99118652 274.57881348 50.40307617 275.11645508 C42.38222246 282.32655284 36.23083974 286.88559224 25.29296875 286.7421875 C18.01692888 286.23544622 13.92712487 281.69666643 9.3203125 276.53515625 C6.25376081 272.92061067 3.2776178 269.23935777 0.3203125 265.53515625 C-0.45570313 264.56835938 -1.23171875 263.6015625 -2.03125 262.60546875 C-3.91811342 260.25189 -5.80088827 257.89517381 -7.6796875 255.53515625 C-40.31919808 270.62409201 -69.60878593 293.91257225 -94.6796875 319.53515625 C-97.2610834 322.12952398 -99.85590927 324.70694786 -102.4765625 327.26171875 C-108.16056178 332.82142536 -113.46805942 338.47635839 -118.41796875 344.71484375 C-120.41199343 347.20134776 -122.46955581 349.61519273 -124.56176758 352.01904297 C-129.52866681 357.75096702 -134.1133563 363.69943326 -138.5546875 369.84765625 C-139.3576123 370.95862671 -139.3576123 370.95862671 -140.17675781 372.09204102 C-141.69991831 374.22518194 -143.19293177 376.37652995 -144.6796875 378.53515625 C-145.19563477 379.25493652 -145.71158203 379.9747168 -146.24316406 380.71630859 C-146.95811035 381.76165771 -146.95811035 381.76165771 -147.6875 382.828125 C-148.11949707 383.44582764 -148.55149414 384.06353027 -148.99658203 384.69995117 C-149.91941789 386.57312559 -149.91941789 386.57312559 -148.92626953 388.60961914 C-147.27041737 391.16733672 -145.3894261 393.45213411 -143.4296875 395.78515625 C-131.57134416 410.0916737 -131.57134416 410.0916737 -131.3671875 417.78515625 C-131.31111328 419.15414062 -131.31111328 419.15414062 -131.25390625 420.55078125 C-132.60612876 430.02874452 -140.85101577 435.69874135 -147.6796875 441.53515625 C-148.51757812 442.25832031 -149.35546875 442.98148437 -150.21875 443.7265625 C-156.64747375 449.01755679 -161.93833637 450.99237184 -170.2734375 450.21484375 C-177.590832 448.14791738 -181.83851664 443.63315299 -186.5546875 437.97265625 C-187.42480469 436.96428711 -187.42480469 436.96428711 -188.3125 435.93554688 C-192.53556414 430.96752633 -192.53556414 430.96752633 -193.6796875 427.53515625 C-199.0979651 431.63736642 -204.36546942 435.89876259 -209.5546875 440.28515625 C-210.39326294 440.99248901 -210.39326294 440.99248901 -211.2487793 441.71411133 C-213.82568698 443.90274461 -216.31034719 446.12473921 -218.6796875 448.53515625 C-218.30682617 448.94765625 -217.93396484 449.36015625 -217.54980469 449.78515625 C-215.83393753 451.69380551 -214.13186101 453.61428808 -212.4296875 455.53515625 C-211.84316406 456.18355469 -211.25664062 456.83195312 -210.65234375 457.5 C-204.58278057 464.38793124 -200.81937752 470.48333661 -201.24609375 479.87109375 C-203.02678182 490.81189794 -214.37943358 497.93523211 -222.6796875 504.03515625 C-229.46391714 508.89204793 -234.30616801 509.33498535 -242.6796875 508.53515625 C-249.87503401 506.4240216 -254.53846902 499.38704292 -259.06640625 493.7890625 C-259.72068604 492.98879639 -259.72068604 492.98879639 -260.38818359 492.17236328 C-261.26556702 491.06012638 -262.10649692 489.91835325 -262.91259766 488.75341797 C-264.2403497 486.82373293 -264.2403497 486.82373293 -266.6796875 484.53515625 C-269.61774953 484.35684444 -269.61774953 484.35684444 -272.6796875 485.53515625 C-273.90042969 485.90511719 -275.12117188 486.27507812 -276.37890625 486.65625 C-278.36227157 487.30431902 -280.34126595 487.96391194 -282.31835938 488.63085938 C-292.43236027 491.92310014 -302.25852523 492.89972979 -312.8671875 492.84765625 C-314.05320557 492.8427417 -315.23922363 492.83782715 -316.46118164 492.83276367 C-334.42766484 492.59370095 -352.1694312 489.17631401 -365.80078125 476.57421875 C-377.09043067 464.75103203 -380.31384197 451.32123869 -379.98828125 435.49609375 C-379.31385274 420.64747268 -370.83032801 409.91624102 -361.53515625 399.00390625 C-329.18912695 360.33004957 -302.16279807 314.94188997 -278.6796875 270.53515625 C-277.94419678 269.15674561 -277.94419678 269.15674561 -277.19384766 267.75048828 C-258.02228908 231.81900863 -241.73144927 194.98697805 -227.55134583 156.82563782 C-215.4098984 124.19696469 -215.4098984 124.19696469 -197.8671875 116.16015625 C-193.48833677 114.32566505 -189.70399276 113.40391336 -184.94067383 113.46923828 C-184.00060989 113.47899689 -183.06054596 113.48875549 -182.09199524 113.49880981 C-181.075504 113.51338226 -180.05901276 113.52795471 -179.01171875 113.54296875 C-176.81445813 113.56053365 -174.61719215 113.57743702 -172.41992188 113.59375 C-168.99162408 113.62424527 -165.56360611 113.6591693 -162.13549805 113.70654297 C-120.10818299 114.25583896 -77.23083844 107.25151407 -44.6796875 78.53515625 C-35.89166983 68.35772867 -32.29856422 56.90169425 -32.6796875 43.53515625 C-33.40265017 36.73383938 -34.5442485 29.85129397 -36.76171875 23.375 C-38.41407935 18.26322911 -38.68634024 12.5951518 -36.9921875 7.4453125 C-29.06614761 -7.64718845 -13.63433429 -4.50118553 0 0 Z M-19.6796875 14.53515625 C-19.26396484 16.32759766 -19.26396484 16.32759766 -18.83984375 18.15625 C-18.47369776 19.76165934 -18.1078271 21.3671315 -17.7421875 22.97265625 C-17.55978516 23.75576172 -17.37738281 24.53886719 -17.18945312 25.34570312 C-12.97487562 43.96647283 -13.22959409 63.62850028 -23.421875 80.40234375 C-25.10942087 82.84312898 -26.84482438 85.20360759 -28.6796875 87.53515625 C-29.29070312 88.355 -29.90171875 89.17484375 -30.53125 90.01953125 C-47.9382385 110.40153233 -78.66340909 121.05973598 -103.6796875 127.53515625 C-105.17583577 133.44356638 -106.64434329 139.3569477 -108.04138184 145.28967285 C-113.3585892 167.82773613 -119.85615624 189.74032935 -127.6796875 211.53515625 C-128.34025146 213.38197998 -128.34025146 213.38197998 -129.01416016 215.26611328 C-141.96238034 250.93675423 -159.7188807 285.92668878 -180.6796875 317.53515625 C-181.26508301 318.41945313 -181.85047852 319.30375 -182.45361328 320.21484375 C-190.74123804 332.67573151 -199.32997886 344.84636388 -208.6796875 356.53515625 C-209.44023437 357.49421875 -210.20078125 358.45328125 -210.984375 359.44140625 C-216.08331864 365.55220252 -221.98173362 369.99877479 -230.2109375 370.7734375 C-240.96474612 371.04228272 -248.58180854 367.5748444 -258.07714844 362.92919922 C-271.002877 356.61905569 -284.27918348 351.34875356 -298.6796875 349.53515625 C-299.52144531 349.42300781 -300.36320312 349.31085938 -301.23046875 349.1953125 C-303.83122567 349.28961206 -303.83122567 349.28961206 -305.42578125 351.45703125 C-306.26302734 352.85695313 -306.26302734 352.85695313 -307.1171875 354.28515625 C-307.80425781 355.38214844 -308.49132812 356.47914063 -309.19921875 357.609375 C-309.78050537 358.54209229 -309.78050537 358.54209229 -310.37353516 359.49365234 C-312.89958529 363.44184509 -315.61086845 367.26287771 -318.3046875 371.09765625 C-318.90466553 371.95311035 -319.50464355 372.80856445 -320.12280273 373.68994141 C-329.36788893 386.82454211 -338.90106019 399.72899111 -348.88671875 412.31103516 C-358.00722038 423.87763791 -363.00656581 432.31804545 -361.6796875 447.53515625 C-359.77424549 455.86433389 -355.1794116 462.2659992 -348.30859375 467.2578125 C-332.53734548 476.79555105 -310.07812483 477.01396607 -292.4921875 472.84765625 C-276.64782232 468.70868971 -263.10879746 461.09062426 -250.6796875 450.53515625 C-249.67164063 449.68824219 -248.66359375 448.84132813 -247.625 447.96875 C-244.29959157 445.16962535 -240.9893154 442.35290332 -237.6796875 439.53515625 C-231.57203155 434.34159555 -225.4645285 429.15387771 -219.2421875 424.09765625 C-214.37839725 420.14007437 -209.62087519 416.06973179 -204.87133789 411.97680664 C-201.34669831 408.94570336 -197.78928868 405.96530309 -194.1796875 403.03515625 C-188.14330087 398.13282451 -182.23493568 393.08190119 -176.36962891 387.9765625 C-175.23466347 387.00851339 -174.07996245 386.06317644 -172.90771484 385.140625 C-168.13833766 381.31571775 -165.04416384 377.06277788 -161.8046875 371.91015625 C-160.76303193 370.30168873 -159.71874861 368.69491999 -158.671875 367.08984375 C-157.91148926 365.92146973 -157.91148926 365.92146973 -157.13574219 364.72949219 C-153.88159918 359.82536118 -150.30012244 355.17341157 -146.6796875 350.53515625 C-145.71675781 349.29958984 -145.71675781 349.29958984 -144.734375 348.0390625 C-132.74315836 332.86798882 -119.87104887 318.539017 -106.20019531 304.87036133 C-104.67482037 303.34278209 -103.15768078 301.80732043 -101.640625 300.27148438 C-96.03168095 294.63143065 -90.30353725 289.39708073 -84.06079102 284.45483398 C-81.81895002 282.64743157 -79.71251373 280.75893041 -77.6171875 278.78515625 C-61.06760032 263.96989526 -41.26051233 252.36673429 -21.828125 241.7890625 C-21.15378418 241.42151855 -20.47944336 241.05397461 -19.78466797 240.67529297 C-18.30318322 239.87286502 -16.81741426 239.07832156 -15.32861328 238.28955078 C-11.03009324 235.97673602 -7.35007332 233.69175473 -3.8046875 230.28515625 C-0.43233068 227.1358938 2.98079399 224.12269247 6.5703125 221.22265625 C10.88482135 217.73082917 15.11740761 214.15939206 19.3203125 210.53515625 C24.30956944 206.23525775 29.36252984 202.03029747 34.4765625 197.87890625 C37.79717736 195.14213576 41.06078032 192.34412675 44.3203125 189.53515625 C49.30972017 185.23542912 54.36252406 181.03030216 59.4765625 176.87890625 C63.4062176 173.64017952 67.25855888 170.31452401 71.11352539 166.98754883 C74.77759039 163.83301235 78.49147333 160.75536008 82.2578125 157.72265625 C93.5038659 148.62776731 93.5038659 148.62776731 98.0078125 135.22265625 C97.71325191 126.75724097 93.06165718 118.94155391 89.3203125 111.53515625 C88.94583984 110.79168945 88.57136719 110.04822266 88.18554688 109.28222656 C79.71591141 92.74522675 69.09829514 77.36463596 56.83203125 63.41796875 C54.3996673 60.62623532 52.10967629 57.75697165 49.8203125 54.84765625 C33.18882821 34.57895141 9.3602093 21.39255537 -15.6796875 14.53515625 C-16.9996875 14.53515625 -18.3196875 14.53515625 -19.6796875 14.53515625 Z M-131.94921875 131.05078125 C-138.27560283 131.55639697 -144.53520112 131.55220907 -150.87890625 131.45703125 C-151.88680206 131.44442261 -152.89469788 131.43181396 -153.93313599 131.41882324 C-158.14213321 131.36476371 -162.35054475 131.30817516 -166.55883789 131.21289062 C-169.66566451 131.14588674 -172.771525 131.11143681 -175.87890625 131.08203125 C-177.28241585 131.03861603 -177.28241585 131.03861603 -178.71427917 130.99432373 C-186.33726817 130.96372734 -192.78844201 133.08976169 -198.56982422 138.20872498 C-202.58589557 142.4076242 -204.56383515 147.32059758 -206.4921875 152.72265625 C-206.93981445 153.9127832 -206.93981445 153.9127832 -207.39648438 155.12695312 C-208.67769666 158.57147646 -209.83563763 161.95508241 -210.6796875 165.53515625 C-209.74769531 165.81488281 -208.81570312 166.09460938 -207.85546875 166.3828125 C-185.88812718 173.19906413 -185.88812718 173.19906413 -180.8125 180.05859375 C-179.31294026 183.33694159 -179.64090022 185.12199806 -180.6796875 188.53515625 C-182.29117176 190.99479012 -183.43664505 191.4582113 -186.24609375 192.34765625 C-191.04782929 192.60986706 -194.19741252 190.83521918 -198.4296875 188.72265625 C-204.78535851 185.58317393 -210.65718958 183.62977476 -217.6796875 182.53515625 C-219.18517119 186.32466869 -220.68314064 190.11710656 -222.1796875 193.91015625 C-222.60894531 194.99039063 -223.03820312 196.070625 -223.48046875 197.18359375 C-224.08955078 198.73046875 -224.08955078 198.73046875 -224.7109375 200.30859375 C-225.08798828 201.26169434 -225.46503906 202.21479492 -225.85351562 203.19677734 C-226.79073052 205.43611075 -226.79073052 205.43611075 -226.6796875 207.53515625 C-225.65230469 207.89867187 -224.62492187 208.2621875 -223.56640625 208.63671875 C-201.69236976 216.51613286 -201.69236976 216.51613286 -197.6796875 222.53515625 C-197.35693715 226.08541013 -197.27575231 228.63224229 -198.7421875 231.91015625 C-201.67180642 234.36725599 -203.87766871 234.37958462 -207.6796875 234.53515625 C-210.71076025 233.5943674 -213.43779789 232.19589559 -216.2421875 230.72265625 C-224.30891252 226.16652686 -224.30891252 226.16652686 -233.18432617 224.70629883 C-235.81080709 225.31621607 -235.81080709 225.31621607 -237.18115234 227.52880859 C-237.77984131 228.81198975 -237.77984131 228.81198975 -238.390625 230.12109375 C-238.83019531 231.05179687 -239.26976562 231.9825 -239.72265625 232.94140625 C-240.16222656 233.92109375 -240.60179687 234.90078125 -241.0546875 235.91015625 C-241.51746094 236.88210937 -241.98023438 237.8540625 -242.45703125 238.85546875 C-245.23091218 244.03671514 -245.23091218 244.03671514 -244.6796875 249.53515625 C-242.36356831 250.54404757 -242.36356831 250.54404757 -239.4921875 251.28515625 C-234.49490694 252.8490534 -229.81759387 254.69000714 -225.1171875 256.97265625 C-223.96089844 257.52824219 -222.80460937 258.08382812 -221.61328125 258.65625 C-218.44202309 260.6873754 -217.17619024 262.10923391 -215.6796875 265.53515625 C-215.74417759 269.27558134 -215.86887734 271.56842106 -218.3046875 274.47265625 C-221.62022048 275.95592101 -224.06116725 275.7970967 -227.6796875 275.53515625 C-231.07421875 274.109375 -231.07421875 274.109375 -234.4921875 272.22265625 C-243.56705019 267.12561405 -243.56705019 267.12561405 -253.63525391 265.72680664 C-256.52971599 266.87124943 -257.07642759 268.41316519 -258.4765625 271.15625 C-258.95996094 272.09146484 -259.44335938 273.02667969 -259.94140625 273.99023438 C-260.43253906 274.97443359 -260.92367187 275.95863281 -261.4296875 276.97265625 C-261.93628906 277.95298828 -262.44289063 278.93332031 -262.96484375 279.94335938 C-265.61292901 284.52094165 -265.61292901 284.52094165 -266.6796875 289.53515625 C-265.60332031 289.88707031 -264.52695312 290.23898437 -263.41796875 290.6015625 C-239.60330054 298.57353773 -239.60330054 298.57353773 -234.8203125 305.0546875 C-233.31151971 308.3357951 -233.6391466 310.11623615 -234.6796875 313.53515625 C-236.41298166 316.32768573 -237.65021008 316.5280472 -240.88671875 317.30859375 C-245.43800306 317.58045213 -247.32002833 316.59352071 -251.2421875 314.34765625 C-258.38188853 310.47107092 -266.84907159 306.17395233 -275.14672852 306.68798828 C-278.61202358 307.84698335 -279.39483215 309.457982 -281.265625 312.55859375 C-281.88566406 313.57953125 -282.50570312 314.60046875 -283.14453125 315.65234375 C-283.77488281 316.72742188 -284.40523438 317.8025 -285.0546875 318.91015625 C-285.70824219 319.9775 -286.36179687 321.04484375 -287.03515625 322.14453125 C-289.52574306 326.25182308 -289.52574306 326.25182308 -291.6796875 330.53515625 C-291.3496875 331.52515625 -291.0196875 332.51515625 -290.6796875 333.53515625 C-288.91818388 334.32062808 -288.91818388 334.32062808 -286.734375 334.7109375 C-285.91227539 334.89567627 -285.09017578 335.08041504 -284.24316406 335.27075195 C-283.3559668 335.46113037 -282.46876953 335.65150879 -281.5546875 335.84765625 C-266.55287061 339.34515119 -253.30601911 345.49516495 -239.6796875 352.53515625 C-236.41921121 354.16539439 -234.30167715 354.00250975 -230.6796875 353.53515625 C-224.58170692 349.43681005 -220.19939623 343.70394939 -215.9921875 337.78515625 C-215.3947876 336.95806152 -214.7973877 336.1309668 -214.18188477 335.27880859 C-212.33385976 332.70719892 -210.50384409 330.12374012 -208.6796875 327.53515625 C-208.12055664 326.74463867 -207.56142578 325.95412109 -206.98535156 325.13964844 C-190.5337786 301.77861056 -176.10292825 277.22880215 -163.64501953 251.51464844 C-162.65002784 249.4743367 -161.6322365 247.44640501 -160.61328125 245.41796875 C-143.99634265 211.87957299 -133.07697494 175.78514904 -124.296875 139.515625 C-124.13179947 138.83696381 -123.96672394 138.15830261 -123.79664612 137.45907593 C-122.95934515 134.03491542 -122.95934515 134.03491542 -122.6796875 130.53515625 C-125.85984463 130.53515625 -128.79789672 130.73422724 -131.94921875 131.05078125 Z M86.3828125 177.34765625 C85.73634766 177.89486328 85.08988281 178.44207031 84.42382812 179.00585938 C83.80314453 179.53759766 83.18246094 180.06933594 82.54296875 180.6171875 C81.68844116 181.34772339 81.68844116 181.34772339 80.81665039 182.09301758 C79.07975722 183.6639758 79.07975722 183.6639758 77.3203125 186.53515625 C78.17753906 187.51355469 79.03476562 188.49195313 79.91796875 189.5 C85.91425902 196.36704447 91.86876276 203.22016769 97.3203125 210.53515625 C103.04586226 206.27609608 108.70023452 201.93234689 114.3203125 197.53515625 C113.72797115 194.32316444 112.75288184 192.53875084 110.58984375 190.109375 C110.03361328 189.47708984 109.47738281 188.84480469 108.90429688 188.19335938 C108.31970703 187.54302734 107.73511719 186.89269531 107.1328125 186.22265625 C105.99332157 184.9350445 104.85399792 183.64728469 103.71484375 182.359375 C103.15361816 181.7307959 102.59239258 181.1022168 102.01416016 180.45458984 C99.79461205 177.93944323 97.63888923 175.37257643 95.4909668 172.79614258 C95.10465088 172.38001709 94.71833496 171.9638916 94.3203125 171.53515625 C91.7297953 171.53515625 88.39833203 175.61578764 86.3828125 177.34765625 Z M20.1328125 233.125 C19.51664062 233.66189453 18.90046875 234.19878906 18.265625 234.75195312 C17.62367188 235.31978516 16.98171875 235.88761719 16.3203125 236.47265625 C15.05104658 237.5877242 13.78028027 238.70108726 12.5078125 239.8125 C11.94449219 240.30999756 11.38117188 240.80749512 10.80078125 241.32006836 C9.3203125 242.53515625 9.3203125 242.53515625 7.3203125 243.53515625 C9.05303331 247.79300068 12.07842658 250.93617657 15.0703125 254.34765625 C16.625 256.13867188 16.625 256.13867188 18.1796875 257.9296875 C18.69208984 258.5170166 19.20449219 259.1043457 19.73242188 259.70947266 C22.27856835 262.63691474 24.79956804 265.58584018 27.3203125 268.53515625 C30.93699909 266.80837421 33.82570736 264.69115665 36.9453125 262.16015625 C37.90695312 261.38929688 38.86859375 260.6184375 39.859375 259.82421875 C42.09263593 257.7469316 43.23250847 256.33785133 44.3203125 253.53515625 C43.53527344 252.62894531 42.75023437 251.72273438 41.94140625 250.7890625 C40.87970383 249.55902903 39.81854172 248.32852907 38.7578125 247.09765625 C38.2107666 246.46327637 37.6637207 245.82889648 37.10009766 245.17529297 C33.43912771 240.90578558 29.94514311 236.5542031 26.625 232.01171875 C26.19445312 231.52445313 25.76390625 231.0371875 25.3203125 230.53515625 C22.68249002 230.53515625 22.09171517 231.39891314 20.1328125 233.125 Z M-171.7421875 407.28515625 C-172.71768555 408.09339844 -172.71768555 408.09339844 -173.71289062 408.91796875 C-174.64198242 409.71074219 -174.64198242 409.71074219 -175.58984375 410.51953125 C-176.15840088 411.00131836 -176.72695801 411.48310547 -177.31274414 411.97949219 C-178.94466266 413.83671398 -179.42851586 415.08295199 -179.6796875 417.53515625 C-177.986015 420.06187052 -177.986015 420.06187052 -175.5546875 422.47265625 C-174.37519531 423.72369141 -174.37519531 423.72369141 -173.171875 425 C-170.68855907 427.52613172 -168.19119296 430.0370574 -165.6796875 432.53515625 C-163.19597382 430.41542357 -160.71852235 428.28850207 -158.2421875 426.16015625 C-157.53513672 425.556875 -156.82808594 424.95359375 -156.09960938 424.33203125 C-155.42607422 423.75195312 -154.75253906 423.171875 -154.05859375 422.57421875 C-153.4354126 422.04006348 -152.81223145 421.5059082 -152.17016602 420.95556641 C-150.56336096 419.58497437 -150.56336096 419.58497437 -149.6796875 417.53515625 C-150.28296875 416.79910156 -150.88625 416.06304687 -151.5078125 415.3046875 C-152.30703125 414.32886719 -153.10625 413.35304688 -153.9296875 412.34765625 C-154.71859375 411.38472656 -155.5075 410.42179687 -156.3203125 409.4296875 C-157.8634053 407.53658855 -159.37556955 405.6177434 -160.8515625 403.671875 C-161.45484375 402.96675781 -162.058125 402.26164062 -162.6796875 401.53515625 C-166.38030579 401.53515625 -169.03602621 404.96481856 -171.7421875 407.28515625 Z M-241.6796875 465.84765625 C-242.32164062 466.34716797 -242.96359375 466.84667969 -243.625 467.36132812 C-246.54404773 469.66664302 -248.58638975 471.39520962 -250.6796875 474.53515625 C-249.90882813 475.43878906 -249.13796875 476.34242188 -248.34375 477.2734375 C-247.33064587 478.46477292 -246.31762962 479.65618308 -245.3046875 480.84765625 C-244.54285156 481.74000977 -244.54285156 481.74000977 -243.765625 482.65039062 C-243.03085938 483.51567383 -243.03085938 483.51567383 -242.28125 484.3984375 C-241.60570068 485.19181519 -241.60570068 485.19181519 -240.91650391 486.0012207 C-239.75094477 487.44678092 -238.70972446 488.99010081 -237.6796875 490.53515625 C-234.47057558 489.94190089 -232.66712909 488.95929468 -230.2265625 486.8125 C-229.6078125 486.27431641 -228.9890625 485.73613281 -228.3515625 485.18164062 C-227.71734375 484.61767578 -227.083125 484.05371094 -226.4296875 483.47265625 C-225.78 482.90482422 -225.1303125 482.33699219 -224.4609375 481.75195312 C-222.86169033 480.35261185 -221.26994631 478.94470384 -219.6796875 477.53515625 C-221.61874449 473.39385239 -224.23494287 470.24732371 -227.1796875 466.78515625 C-227.67855469 466.18316406 -228.17742187 465.58117187 -228.69140625 464.9609375 C-229.97386993 463.44467348 -231.32229021 461.98472249 -232.6796875 460.53515625 C-236.29215722 460.53515625 -238.94352619 463.66916638 -241.6796875 465.84765625 Z " fill="#000000" transform="translate(379.6796875,3.46484375)"/>
</svg>
